<?xml version="1.0" standalone="no"?><!DOCTYPE svg PUBLIC "-//W3C//DTD SVG 1.1//EN" "http://www.w3.org/Graphics/SVG/1.1/DTD/svg11.dtd"><svg t="1630906998554" class="icon" viewBox="0 0 1024 1024" version="1.1" xmlns="http://www.w3.org/2000/svg" p-id="2038" xmlns:xlink="http://www.w3.org/1999/xlink" width="200" height="200"><defs><style type="text/css"></style></defs><path d="M152.61 288.74a78.51 81.45 0 1 0 157.02 0 78.51 81.45 0 1 0-157.02 0Z" fill="#2386EE" p-id="2039"></path><path d="M0 474.03a54.32 56.35 0 1 0 108.64 0 54.32 56.35 0 1 0-108.64 0Z" fill="#00CCFE" p-id="2040"></path><path d="M164.68 618.65a66.44 68.93 0 1 0 132.88 0 66.44 68.93 0 1 0-132.88 0Z" fill="#05C8C8" p-id="2041"></path><path d="M348.64 758.92a42.27 43.85 0 1 0 84.54 0 42.27 43.85 0 1 0-84.54 0Z" fill="#A06EFF" p-id="2042"></path><path d="M426.75 403.8c0 1.28-0.46 2.64-1.37 4.06-0.92 1.43-2.4 3.28-4.44 5.56l-48.38 51.87 28.73 61.7c0.56 1.43 0.99 2.66 1.27 3.69 0.28 1.03 0.42 1.98 0.42 2.83 0 1-0.23 1.84-0.69 2.51-0.46 0.68-1.25 1.23-2.38 1.66-1.13 0.43-2.66 0.75-4.6 0.96-1.94 0.21-4.38 0.32-7.34 0.32s-5.35-0.09-7.18-0.27c-1.83-0.18-3.27-0.45-4.33-0.8-1.06-0.36-1.83-0.86-2.32-1.5-0.49-0.64-0.88-1.39-1.16-2.25l-28.94-65.55-12.78 65.87c-0.14 0.79-0.49 1.44-1.06 1.98-0.56 0.53-1.43 1-2.59 1.39-1.16 0.39-2.64 0.68-4.44 0.86-1.8 0.18-4.03 0.27-6.71 0.27-2.75 0-4.98-0.09-6.71-0.27-1.73-0.18-3.08-0.46-4.07-0.86-0.99-0.39-1.66-0.86-2.01-1.39-0.35-0.54-0.42-1.19-0.21-1.98l25.77-130.79c0.07-0.78 0.39-1.44 0.95-1.98 0.56-0.53 1.43-0.98 2.59-1.34 1.16-0.36 2.64-0.62 4.44-0.8 1.8-0.18 4.07-0.27 6.81-0.27 2.68 0 4.88 0.09 6.6 0.27 1.72 0.18 3.08 0.45 4.07 0.8 0.99 0.36 1.65 0.8 2.01 1.34 0.35 0.53 0.46 1.19 0.32 1.98l-11.62 59.14 50.7-58.71c0.7-0.86 1.46-1.6 2.27-2.25 0.81-0.64 1.85-1.14 3.12-1.5 1.27-0.36 2.82-0.62 4.65-0.8 1.83-0.18 4.12-0.27 6.87-0.27 2.82 0 5.12 0.09 6.92 0.27 1.8 0.18 3.19 0.46 4.17 0.86 0.99 0.39 1.67 0.86 2.06 1.39 0.4 0.55 0.59 1.21 0.59 2zM446.61 534.69c-0.14 0.71-0.48 1.34-1 1.87-0.53 0.54-1.34 0.98-2.43 1.34-1.09 0.36-2.52 0.62-4.28 0.8-1.76 0.18-3.91 0.27-6.44 0.27-2.61 0-4.74-0.09-6.39-0.27-1.66-0.18-2.96-0.45-3.91-0.8-0.95-0.36-1.57-0.8-1.85-1.34-0.28-0.53-0.35-1.16-0.21-1.87l18.7-95.18c0.14-0.71 0.48-1.34 1-1.87 0.53-0.53 1.34-1 2.43-1.39 1.09-0.39 2.5-0.7 4.23-0.91 1.73-0.21 3.89-0.32 6.5-0.32 2.6 0 4.74 0.11 6.39 0.32 1.65 0.21 2.96 0.52 3.91 0.91 0.95 0.39 1.57 0.86 1.85 1.39 0.28 0.53 0.35 1.16 0.21 1.87l-18.71 95.18z m27.25-127.47c-0.49 2.64-1.16 4.87-2.01 6.68-0.84 1.82-1.97 3.28-3.38 4.38-1.41 1.11-3.13 1.89-5.18 2.35-2.04 0.46-4.58 0.7-7.61 0.7-2.96 0-5.37-0.23-7.24-0.7-1.87-0.46-3.27-1.25-4.23-2.35-0.95-1.1-1.5-2.57-1.64-4.38-0.14-1.82 0.07-4.04 0.63-6.68 0.49-2.57 1.16-4.74 2.01-6.52 0.84-1.78 1.97-3.24 3.38-4.38 1.41-1.14 3.13-1.96 5.18-2.46 2.04-0.5 4.58-0.75 7.61-0.75 2.96 0 5.37 0.25 7.24 0.75s3.27 1.32 4.23 2.46c0.95 1.14 1.48 2.6 1.58 4.38 0.12 1.78-0.07 3.95-0.57 6.52zM574.53 460.58c0 2.5-0.16 4.99-0.48 7.49-0.32 2.5-0.72 5.06-1.21 7.7l-11.72 58.92c-0.14 0.71-0.48 1.34-1 1.87-0.53 0.54-1.34 0.98-2.43 1.34-1.09 0.36-2.5 0.62-4.23 0.8-1.73 0.18-3.89 0.27-6.5 0.27s-4.74-0.09-6.39-0.27c-1.66-0.18-2.94-0.45-3.86-0.8-0.92-0.36-1.53-0.8-1.85-1.34-0.32-0.53-0.41-1.16-0.26-1.87l11.41-57.21c0.35-1.71 0.62-3.46 0.79-5.24 0.17-1.78 0.26-3.35 0.26-4.71 0-3.21-0.67-5.84-2.01-7.91-1.34-2.07-3.59-3.1-6.76-3.1-2.89 0-5.9 0.93-9.03 2.78-3.13 1.85-6.09 4.37-8.87 7.54-2.78 3.17-5.27 6.88-7.45 11.12-2.18 4.24-3.73 8.75-4.65 13.53l-8.56 43.2c-0.14 0.71-0.48 1.34-1 1.87-0.53 0.54-1.34 0.98-2.43 1.34-1.09 0.36-2.52 0.62-4.28 0.8-1.76 0.18-3.91 0.27-6.44 0.27-2.61 0-4.74-0.09-6.39-0.27-1.66-0.18-2.96-0.45-3.91-0.8-0.95-0.36-1.57-0.8-1.85-1.34-0.28-0.53-0.35-1.16-0.21-1.87l18.91-95.5c0.14-0.71 0.44-1.34 0.9-1.87s1.16-0.96 2.11-1.28 2.18-0.57 3.7-0.75c1.51-0.18 3.33-0.27 5.44-0.27 2.18 0 3.96 0.09 5.33 0.27 1.37 0.18 2.45 0.43 3.22 0.75s1.28 0.75 1.53 1.28 0.3 1.16 0.16 1.87l-3.06 15.72c1.48-2.5 3.45-5.04 5.92-7.65 2.46-2.6 5.3-4.94 8.5-7 3.2-2.07 6.69-3.76 10.46-5.08 3.77-1.32 7.69-1.98 11.78-1.98 4.93 0 9.07 0.73 12.41 2.19s6.06 3.44 8.13 5.94c2.08 2.5 3.57 5.4 4.49 8.72 0.92 3.31 1.38 6.83 1.38 10.53zM673.93 538.54c-1.27 6.49-3.24 12.14-5.92 16.95-2.68 4.81-6.2 8.84-10.56 12.08-4.37 3.24-9.67 5.69-15.9 7.33-6.23 1.64-13.5 2.46-21.81 2.46-5.99 0-11.36-0.48-16.11-1.44s-8.71-2.19-11.88-3.69c-1.13-0.57-1.9-1.21-2.32-1.93s-0.63-1.71-0.63-2.99c0-0.43 0.04-1.14 0.11-2.14 0.07-1 0.23-2.1 0.48-3.31 0.25-1.21 0.54-2.48 0.9-3.8 0.35-1.32 0.79-2.5 1.32-3.53 0.53-1.03 1.11-1.89 1.74-2.57s1.37-1.02 2.22-1.02 1.88 0.3 3.12 0.91c1.23 0.6 2.87 1.26 4.91 1.98 2.04 0.71 4.58 1.37 7.61 1.98 3.03 0.61 6.76 0.91 11.2 0.91 3.59 0 6.81-0.29 9.67-0.86 2.85-0.57 5.33-1.5 7.45-2.78 2.11-1.28 3.82-2.92 5.12-4.92 1.3-2 2.23-4.46 2.8-7.38 0.92-4.63 1.83-8.52 2.75-11.66 0.91-3.14 1.76-5.7 2.54-7.7-1.27 2.35-3.08 4.69-5.44 7-2.36 2.32-5.05 4.4-8.08 6.26a44.804 44.804 0 0 1-9.77 4.44c-3.49 1.1-6.99 1.66-10.51 1.66-5.42 0-9.98-0.93-13.68-2.78-3.7-1.85-6.71-4.42-9.03-7.7-2.32-3.28-4-7.13-5.02-11.55-1.02-4.42-1.53-9.2-1.53-14.33 0-4.63 0.42-9.62 1.27-14.97 0.85-5.35 2.17-10.66 3.96-15.93 1.8-5.28 4.07-10.34 6.81-15.19 2.75-4.85 6.04-9.14 9.88-12.89 3.84-3.74 8.24-6.72 13.2-8.93 4.96-2.21 10.55-3.31 16.74-3.31 5.84 0 11.02 1.23 15.53 3.69s8.45 6.04 11.83 10.75l1.69-8.45c0.28-1.5 1.39-2.57 3.33-3.21 1.94-0.64 5.05-0.96 9.35-0.96 2.11 0 3.87 0.09 5.28 0.27 1.41 0.18 2.52 0.43 3.33 0.75s1.36 0.75 1.64 1.28c0.28 0.53 0.35 1.16 0.21 1.87l-19.8 99.35z m-12.25-70.79c-2.47-3.92-5.19-6.86-8.19-8.82-2.99-1.96-6.46-2.94-10.4-2.94-2.96 0-5.65 0.71-8.08 2.14-2.43 1.43-4.61 3.33-6.55 5.72-1.94 2.39-3.63 5.15-5.07 8.29a65.843 65.843 0 0 0-3.59 9.84c-0.95 3.42-1.66 6.84-2.11 10.27-0.46 3.42-0.69 6.67-0.69 9.73 0 2.42 0.21 4.64 0.63 6.63 0.42 2 1.07 3.69 1.95 5.08 0.88 1.39 2.01 2.46 3.38 3.21s3.05 1.12 5.02 1.12c3.1 0 6.27-0.94 9.51-2.83 3.24-1.89 6.27-4.45 9.08-7.7 2.82-3.24 5.3-7.04 7.45-11.39 2.15-4.35 3.71-8.98 4.7-13.9l2.96-14.45zM789.07 534.8c-0.28 1.5-1.39 2.57-3.33 3.21-1.94 0.64-5.05 0.96-9.35 0.96-2.18 0-3.96-0.07-5.33-0.21-1.37-0.14-2.48-0.37-3.33-0.7-0.84-0.32-1.39-0.75-1.64-1.28s-0.3-1.19-0.16-1.98l2.85-15.29c-1.06 2.28-2.75 4.69-5.07 7.22-2.32 2.53-5.07 4.85-8.24 6.95-3.17 2.1-6.67 3.81-10.51 5.13-3.84 1.32-7.8 1.98-11.88 1.98-4.01 0-7.52-0.52-10.51-1.55s-5.56-2.44-7.71-4.22a23.25 23.25 0 0 1-5.33-6.31 37.037 37.037 0 0 1-3.38-7.7c-0.84-2.71-1.44-5.51-1.8-8.39a70.65 70.65 0 0 1-0.53-8.5c0-4.63 0.42-9.61 1.27-14.92a95.72 95.72 0 0 1 3.96-15.83 90.4 90.4 0 0 1 6.81-15.13c2.75-4.85 6.04-9.13 9.88-12.83 3.84-3.71 8.24-6.67 13.2-8.88 4.96-2.21 10.55-3.31 16.74-3.31 2.75 0 5.37 0.3 7.87 0.91 2.5 0.61 4.79 1.43 6.87 2.46a27.79 27.79 0 0 1 5.65 3.69c1.69 1.43 3.13 2.92 4.33 4.49l10.04-50.37c0.14-0.71 0.46-1.35 0.95-1.93 0.49-0.57 1.28-1.05 2.38-1.44 1.09-0.39 2.5-0.7 4.22-0.91 1.73-0.21 3.89-0.32 6.5-0.32 2.6 0 4.74 0.11 6.39 0.32 1.65 0.21 2.94 0.52 3.86 0.91 0.91 0.39 1.51 0.87 1.8 1.44 0.28 0.57 0.35 1.21 0.21 1.93l-27.68 140.4z m-13.2-66.84c-2.47-3.92-5.19-6.88-8.19-8.88-2.99-2-6.46-2.99-10.4-2.99-2.89 0-5.55 0.69-7.98 2.08-2.43 1.39-4.61 3.25-6.55 5.56-1.94 2.32-3.63 5.03-5.07 8.13-1.44 3.1-2.64 6.36-3.59 9.79-0.95 3.42-1.67 6.84-2.17 10.27-0.49 3.42-0.74 6.67-0.74 9.73 0 5.42 0.88 9.5 2.64 12.24 1.76 2.75 4.54 4.12 8.34 4.12 3.1 0 6.27-0.94 9.51-2.83 3.24-1.89 6.27-4.42 9.08-7.59 2.82-3.17 5.3-6.91 7.45-11.23 2.15-4.31 3.71-8.93 4.7-13.85l2.97-14.55zM913.83 460.26c0 5.13-1.15 9.75-3.43 13.85-2.29 4.1-5.85 7.63-10.67 10.59-4.83 2.96-10.95 5.22-18.38 6.79-7.43 1.57-16.29 2.35-26.57 2.35h-9.72c-0.28 1.64-0.49 3.26-0.63 4.87-0.14 1.6-0.21 3.08-0.21 4.44 0 5.77 1.48 10.12 4.44 13.05 2.96 2.92 7.71 4.38 14.26 4.38 4.65 0 8.82-0.34 12.52-1.02 3.7-0.68 6.94-1.43 9.72-2.25 2.78-0.82 5.09-1.57 6.92-2.25 1.83-0.68 3.17-1.02 4.01-1.02 0.84 0 1.44 0.25 1.8 0.75 0.35 0.5 0.53 1.28 0.53 2.35 0 1.21-0.11 2.6-0.32 4.17-0.21 1.57-0.51 3.12-0.9 4.65-0.39 1.53-0.88 2.98-1.48 4.33-0.6 1.36-1.29 2.39-2.06 3.1-0.84 0.86-2.4 1.71-4.65 2.57-2.25 0.86-4.96 1.64-8.13 2.35-3.17 0.71-6.73 1.3-10.67 1.76-3.95 0.46-7.96 0.7-12.04 0.7-6.76 0-12.66-0.71-17.69-2.14-5.04-1.43-9.24-3.6-12.62-6.52-3.38-2.92-5.92-6.65-7.61-11.17s-2.54-9.89-2.54-16.09c0-4.78 0.44-9.89 1.32-15.35 0.88-5.45 2.31-10.84 4.28-16.15a79.738 79.738 0 0 1 7.61-15.24c3.1-4.85 6.85-9.11 11.25-12.78s9.49-6.61 15.26-8.82 12.36-3.31 19.75-3.31c6.41 0 11.92 0.77 16.53 2.3 4.61 1.53 8.4 3.57 11.36 6.1 2.96 2.53 5.16 5.42 6.6 8.66 1.43 3.25 2.16 6.58 2.16 10z m-26.1 2.03c0-2.85-1.11-5.22-3.33-7.11-2.22-1.89-5.44-2.83-9.67-2.83-3.52 0-6.67 0.64-9.45 1.92a24.225 24.225 0 0 0-7.34 5.19c-2.11 2.18-3.93 4.74-5.44 7.7a49.048 49.048 0 0 0-3.64 9.46h8.87c5.63 0 10.35-0.37 14.15-1.12s6.87-1.76 9.19-3.05c2.32-1.28 4.01-2.8 5.07-4.55 1.07-1.74 1.59-3.61 1.59-5.61zM1020.09 460.26c0 5.13-1.15 9.75-3.43 13.85-2.29 4.1-5.85 7.63-10.67 10.59-4.83 2.96-10.95 5.22-18.38 6.79-7.43 1.57-16.29 2.35-26.57 2.35h-9.72c-0.28 1.64-0.49 3.26-0.63 4.87-0.14 1.6-0.21 3.08-0.21 4.44 0 5.77 1.48 10.12 4.44 13.05 2.96 2.92 7.71 4.38 14.26 4.38 4.65 0 8.82-0.34 12.52-1.02 3.7-0.68 6.94-1.43 9.72-2.25 2.78-0.82 5.09-1.57 6.92-2.25 1.83-0.68 3.17-1.02 4.01-1.02 0.84 0 1.44 0.25 1.8 0.75 0.35 0.5 0.53 1.28 0.53 2.35 0 1.21-0.11 2.6-0.32 4.17-0.21 1.57-0.51 3.12-0.9 4.65-0.39 1.53-0.88 2.98-1.48 4.33-0.6 1.36-1.29 2.39-2.06 3.1-0.84 0.86-2.4 1.71-4.65 2.57-2.25 0.86-4.96 1.64-8.13 2.35-3.17 0.71-6.73 1.3-10.67 1.76-3.95 0.46-7.96 0.7-12.04 0.7-6.76 0-12.66-0.71-17.69-2.14-5.04-1.43-9.24-3.6-12.62-6.52-3.38-2.92-5.92-6.65-7.61-11.17s-2.54-9.89-2.54-16.09c0-4.78 0.44-9.89 1.32-15.35 0.88-5.45 2.31-10.84 4.28-16.15a79.738 79.738 0 0 1 7.61-15.24c3.1-4.85 6.85-9.11 11.25-12.78s9.49-6.61 15.26-8.82 12.36-3.31 19.75-3.31c6.41 0 11.92 0.77 16.53 2.3 4.61 1.53 8.4 3.57 11.36 6.1 2.96 2.53 5.16 5.42 6.6 8.66 1.44 3.25 2.16 6.58 2.16 10zM994 462.29c0-2.85-1.11-5.22-3.33-7.11-2.22-1.89-5.44-2.83-9.67-2.83-3.52 0-6.67 0.64-9.45 1.92a24.225 24.225 0 0 0-7.34 5.19c-2.11 2.18-3.93 4.74-5.44 7.7a49.048 49.048 0 0 0-3.64 9.46H964c5.63 0 10.35-0.37 14.15-1.12s6.87-1.76 9.19-3.05c2.32-1.28 4.01-2.8 5.07-4.55 1.06-1.74 1.59-3.61 1.59-5.61z" fill="#2788EE" p-id="2043"></path></svg>