<?xml version="1.0" standalone="no"?><!DOCTYPE svg PUBLIC "-//W3C//DTD SVG 1.1//EN" "http://www.w3.org/Graphics/SVG/1.1/DTD/svg11.dtd"><svg t="1630898194098" class="icon" viewBox="0 0 1024 1024" version="1.1" xmlns="http://www.w3.org/2000/svg" p-id="8748" xmlns:xlink="http://www.w3.org/1999/xlink" width="200" height="200"><defs><style type="text/css"></style></defs><path d="M226.986667 682.666667h99.2v25.173333h-69.12v34.773333h64V768h-64v57.6h-30.08zM349.013333 682.666667h30.72v116.906666h70.826667L448 825.6h-98.986667zM495.786667 682.666667v85.333333c0 27.306667 14.08 35.413333 29.44 35.413333S554.666667 794.026667 554.666667 768v-85.333333h29.866666v83.2c0 48.64-28.586667 61.013333-59.733333 61.013333s-59.733333-13.013333-59.733333-60.373333V682.666667zM714.666667 764.373333h-67.84v36.053334h74.88l-3.626667 25.173333h-101.12V682.666667h100.693333v25.173333h-70.826666v30.506667h67.84zM743.68 825.6V682.666667h38.186667c17.706667 32 50.56 89.386667 56.96 104.96-1.706667-14.72-1.493333-39.466667-1.493334-62.72V682.666667h27.733334v142.933333h-35.626667c-15.36-27.733333-51.626667-93.866667-58.666667-110.293333 0 12.586667 1.493333 41.6 1.493334 67.2v42.666666zM929.706667 708.693333h-42.666667V682.666667H1002.666667v25.173333h-42.666667v117.76h-30.293333z" fill="#070001" p-id="8749"></path><path d="M31.146667 355.84h976v274.773333H31.146667z" fill="#231815" p-id="8750"></path><path d="M65.066667 599.68h55.04l49.28-158.08 51.2 158.08h105.6v-152.746667l63.786666 152.746667h75.306667v-201.813333h-49.92l0.426667 148.48-62.933334-148.48h-76.373333v187.093333L206.933333 397.866667H141.013333l-75.946666 201.813333z" fill="#FFFFFF" p-id="8751"></path><path d="M604.8 451.84c-6.4-21.333333-15.573333-44.373333-45.44-44.373333a29.866667 29.866667 0 0 0-31.146667 31.36c0 17.92 11.946667 28.586667 40.533334 42.666666 34.773333 17.28 56.746667 34.133333 56.746666 66.133334 0 38.4-31.786667 66.346667-78.08 66.346666a183.04 183.04 0 0 1-54.613333-10.24c-1.92-7.466667-7.466667-41.173333-9.6-56.32l12.586667-2.986666c6.4 21.333333 24.746667 55.893333 56.533333 55.893333a29.866667 29.866667 0 0 0 31.786667-33.066667c0-18.986667-11.733333-29.866667-39.04-44.586666-33.706667-18.133333-55.68-34.346667-55.68-68.053334s26.453333-61.013333 75.093333-61.013333a234.666667 234.666667 0 0 1 46.506667 5.76c1.28 11.946667 3.626667 28.8 6.186666 49.28zM838.613333 410.24a42.666667 42.666667 0 0 0-40.106666 26.666667c-11.52 20.053333-21.333333 37.973333-37.546667 70.4a33.493333 33.493333 0 0 0-3.626667 17.28v40.106666c0 28.373333 2.56 29.226667 29.226667 32.426667v12.16h-102.613333V597.333333c25.813333-3.2 27.946667-4.053333 27.946666-32.426666v-37.546667a30.293333 30.293333 0 0 0-3.413333-14.933333c-9.6-18.986667-21.333333-40.746667-40.96-74.88-11.946667-21.333333-16.853333-25.386667-35.84-27.306667v-11.946667h95.146667v11.946667c-21.333333 2.986667-21.333333 7.253333-15.573334 18.56 10.666667 21.333333 24.746667 47.146667 37.12 70.826667 9.6-18.346667 25.173333-49.493333 34.346667-69.12 6.186667-13.013333 3.626667-17.28-19.84-20.266667v-11.946667h75.733333zM969.6 451.84c-6.4-21.333333-15.573333-44.373333-45.44-44.373333a29.866667 29.866667 0 0 0-31.146667 31.36c0 17.92 11.946667 28.586667 40.533334 42.666666 34.773333 17.28 56.96 34.133333 56.96 66.133334 0 38.4-31.786667 66.346667-78.293334 66.346666a184.32 184.32 0 0 1-54.613333-10.24c-1.92-7.466667-7.466667-41.173333-9.6-56.32l12.586667-2.986666c6.613333 21.333333 24.746667 55.893333 56.533333 55.893333a29.866667 29.866667 0 0 0 31.786667-33.066667c0-18.986667-11.733333-29.866667-39.04-44.586666-33.706667-17.92-56.533333-34.133333-56.533334-67.84s26.453333-61.013333 75.306667-61.013334a231.68 231.68 0 0 1 46.293333 5.76c1.28 11.946667 3.626667 28.8 6.186667 49.28z" fill="#E4C834" p-id="8752"></path></svg>
