<?xml version="1.0" standalone="no"?><!DOCTYPE svg PUBLIC "-//W3C//DTD SVG 1.1//EN" "http://www.w3.org/Graphics/SVG/1.1/DTD/svg11.dtd"><svg t="1630898036013" class="icon" viewBox="0 0 6593 1024" version="1.1" xmlns="http://www.w3.org/2000/svg" p-id="3792" xmlns:xlink="http://www.w3.org/1999/xlink" width="1287.6953125" height="200"><defs><style type="text/css"></style></defs><path d="M1690.73573381 424.07121312h-60.29829277c-24.06297059 245.81420422-57.81874978 544.65711484-481.99196854 544.65709878h-195.20870386c-113.27064647 0-118.11705843-16.84970514-118.11705867-96.36457244V-407.48183955c0-81.93807314 0-115.69385243 226.54129325-115.69385263H1141.28857524v-72.30161798c-86.78446939 7.2696019-303.68930653 7.2696019-402.47708532 7.26961839-93.9977352 0-281.99318934 0-363.93126287-7.26961839v72.30161798h55.3955441c185.57226438 0 190.41866042 26.48617718 190.41866026 113.27064641v1265.30635878c0 86.78446939-4.84641195 113.27064647-190.41866026 113.27064661h-55.3955441v74.72482358h1250.82350701l65.08835215-619.38192271z" p-id="3793" fill="#1565C0"></path><path d="M1649.76670504-597.78779516c-9.69280812-28.90936707-14.48286785-38.60219108-45.81544078-38.60219108s-38.5458386 9.69280812-48.18229452 38.60219108l-388.05056978 983.31316973c-16.90607387 40.96902878-45.75908848 115.69385243-195.20872001 115.69385218v60.24195616h373.56771846v-60.2983085c-74.72480773 0-120.48389596-33.69942662-120.48389627-81.9380736 0-12.00330912 2.3668534-16.84970514 7.21324988-33.69942624l81.93807323-207.26836586h477.20189324l96.36458871 245.81420441c4.84641195 9.63645572 9.69280812 21.69611758 9.69280808 28.90936694 0 48.23864694-91.63088181 48.23864694-137.38996994 48.23864669v60.24195616h474.77870334v-60.2983085h-33.75577931c-113.27064647 0-125.33030796-16.84970514-142.18001316-65.03199957l-409.69035117-1033.91867z m-96.42094127 171.08938065l214.48163149 544.71346724h-428.96324648l214.48161499-544.71346724z" p-id="3794" fill="#1565C0"></path><path d="M3580.27044338-580.93808956h-1467.78469681l-43.39223482 539.86705508h57.8187503c33.81213137-388.05058607 69.87841172-467.56545367 433.86601084-467.56543748 43.39223463 0 106.00104444 0 130.12036757 4.84639586 50.60550023 9.58010329 50.60550023 36.1226327 50.6054845 91.57452941v1265.30637444c0 81.93807314 0 115.63750001-253.02745381 115.63748415h-96.42094115v74.72482389c98.78777857-7.2132497 342.2351454-7.2132497 453.0825856-7.21326565s359.08485059 0 457.92898206 7.21326565v-74.72482389h-96.36457281c-253.08382235 0-253.08382235-33.69942662-253.08382232-115.63748415V-412.21554669c0-48.23864694 0-81.93807314 43.39223478-91.57452941 26.48617718-4.84641195 91.57452901-4.84641195 137.33361752-4.84639586 361.50805682 0 397.68704176 79.51486752 431.38646833 467.56543748h60.29830823l-45.81544041-539.86705508z" p-id="3795" fill="#1565C0"></path><path d="M4872.00662656 966.36147453h-60.24195634c-60.29830846 368.72130625-115.69385243 544.65711484-527.80739316 544.65709859h-318.11582206c-113.27064647 0-118.11705843-16.90607387-118.11704275-96.36457232V773.46325563h214.53798379c233.7545426 0 260.24071946 77.14801367 260.24071959 281.99318921h60.29829257v-636.23164403h-60.29829257c0 204.84517546-26.48617718 279.51363065-260.24071959 279.51363094h-214.53798379v-575.93331931c0-79.57121991 4.84641195-96.47729381 118.11704275-96.47729362h308.47936613c368.72130625 0 431.38646835 132.59991005 469.98864386 467.56545335h60.24195569l-67.51155806-539.8670711h-1349.66763796v72.30161775h55.45189612c185.57226438 0 190.41866042 26.48617718 190.41866027 113.27064619v1258.09310913c0 86.78446939-4.84641195 113.27064647-190.41866027 113.27064645h-55.3955437v74.72482405h1383.36706471l101.21098477-619.38192267z" p-id="3796" fill="#1565C0"></path><path d="M5597.44594606 115.59184652l330.23181999-482.04830511c50.54913188-77.09166137 132.54355766-154.23967511 347.0252054-156.66288128v-72.30161792h-573.62285074v72.30161792c96.36457264 2.42320613 149.44963164 55.45189648 149.44963146 110.90379318 0 24.06297059-4.84641195 28.90936707-21.69611723 55.39554392l-274.77993962 404.90029121-308.47935048-462.71904099c-4.79005968-7.2132497-16.90607387-26.48617718-16.90607377-36.12263296 0-28.96571956 53.085043-69.87841172 154.29604407-72.35795436v-72.30161792c-81.93807314 7.2696019-257.87386592 7.2696019-349.44839519 7.26961849-74.72480773 0-224.17443941-2.42320613-313.32577867-7.26961849v72.30161792h45.81544089c132.54355766 0 178.30264614 16.90607387 224.11810306 84.36126366l441.022908 667.62056948-392.78427741 580.83609997c-33.81213137 48.18229422-106.11374922 159.02973485-347.13789382 159.02971866v74.72482389h573.67918692v-74.72482389c-110.90379292-2.3668534-151.87283766-67.45520581-151.87282181-110.84744075 0-21.69611758 7.2132497-31.33257303 24.1193074-57.81874949l339.81193949-503.74442304 380.78098399 573.62283478c4.84641195 9.63645572 12.05966165 19.27291104 12.05964597 26.48617674 0 28.96571956-53.02869031 69.87841172-156.66288144 72.30160176v74.72482389c84.36127922-7.2132497 260.29707214-7.2132497 349.44839502-7.21326565 101.26733726 0 212.11477759 2.42320613 313.3257783 7.21326565v-74.72482389h-45.81544058c-125.27395557 0-175.93579237-12.00330912-226.54129302-86.7844693l-506.05492375-766.40834842z" p-id="3797" fill="#1565C0"></path></svg>
