<?xml version="1.0" standalone="no"?><!DOCTYPE svg PUBLIC "-//W3C//DTD SVG 1.1//EN" "http://www.w3.org/Graphics/SVG/1.1/DTD/svg11.dtd"><svg t="1630898011036" class="icon" viewBox="0 0 1024 1024" version="1.1" xmlns="http://www.w3.org/2000/svg" p-id="3247" xmlns:xlink="http://www.w3.org/1999/xlink" width="200" height="200"><defs><style type="text/css"></style></defs><path d="M49.419815 159.696738A62.637292 62.637292 0 0 1 92.553846 141.784615h854.646154a62.621538 62.621538 0 0 1 43.134031 17.912123A62.637292 62.637292 0 0 1 1008.246154 202.830769v610.461539a61.046154 61.046154 0 0 1-61.046154 61.046154H92.553846a62.653046 62.653046 0 0 1-43.134031-17.912124A62.621538 62.621538 0 0 1 31.507692 813.292308v-610.461539a62.653046 62.653046 0 0 1 17.912123-43.134031zM481.626585 478.759385L268.366769 263.876923l-53.720615 53.720615 162.784492 162.784493-162.784492 162.800246 53.720615 52.901415L481.626585 478.759385zM820.224 630.153846H519.876923v75.697231h300.347077V630.153846z" p-id="3248" fill="#1565C0"></path></svg>