<?xml version="1.0" standalone="no"?><!DOCTYPE svg PUBLIC "-//W3C//DTD SVG 1.1//EN" "http://www.w3.org/Graphics/SVG/1.1/DTD/svg11.dtd"><svg t="1630898488937" class="icon" viewBox="0 0 1024 1024" version="1.1" xmlns="http://www.w3.org/2000/svg" p-id="18040" xmlns:xlink="http://www.w3.org/1999/xlink" width="200" height="200"><defs><style type="text/css"></style></defs><path d="M24.8832 391.68C90.4192 120.9856 362.9056-45.2608 633.4976 20.2752c270.592 65.536 436.8384 337.9712 371.3024 608.5632-65.536 270.6432-337.9712 436.8896-608.5632 371.3536a503.9104 503.9104 0 0 1-4.608-1.1264C122.9312 933.1712-41.4208 661.8624 24.576 393.1648l0.3584-1.536" fill="#E72D14" p-id="18041"></path><path d="M543.488 495.616l-23.296 28.3648L486.144 512l19.5584 30.8736-23.296 28.3648 35.2768-8.8064 20.1728 30.8736v-36.5568l35.8912-9.472-33.9968-13.2096 3.7376-38.4512z m136.1408-76.9024h-36.5568l-11.3664-32.768-11.3152 35.328h-36.5568l29.6448 21.4016-11.3664 35.328 29.5936-22.0672 29.6448 22.016-11.3664-35.2768 29.6448-23.9616z m-59.904-134.8096l5.6832 39.0656 17.0496-32.768 36.5568 5.632-26.4704-25.8048 16.9984-32.768-31.488 13.824-25.856-25.8048 5.632 36.5568-32.768 16.384 34.7136 5.632z m-75.5712-168.2944l-23.3472 28.3648-34.6624-13.824 20.1728 31.488-23.9104 27.6992 35.8912-8.8064 19.5584 30.8736v-36.5568l37.1712-8.8064-34.048-13.824 3.1744-36.608z m-256.512 161.9968l-34.6112-106.496-34.6624 106.496H106.8032l90.112 65.536-34.6624 105.8304 90.7776-62.976 90.112 62.976-34.6624-105.8304L399.2064 280.064l-111.5648-2.56z" fill="#FFD700" p-id="18042"></path></svg>