<?xml version="1.0" standalone="no"?><!DOCTYPE svg PUBLIC "-//W3C//DTD SVG 1.1//EN" "http://www.w3.org/Graphics/SVG/1.1/DTD/svg11.dtd"><svg t="1630898401841" class="icon" viewBox="0 0 1024 1024" version="1.1" xmlns="http://www.w3.org/2000/svg" p-id="2628" xmlns:xlink="http://www.w3.org/1999/xlink" width="200" height="200"><defs><style type="text/css"></style></defs><path d="M31.507692 689.230769c98.461538 265.846154 393.846154 399.753846 657.723077 301.292308 139.815385-51.2 250.092308-161.476923 301.292308-301.292308L512 645.907692 31.507692 689.230769z" fill="#F5D34B" p-id="2629"></path><path d="M512 0C297.353846 0 106.338462 133.907692 31.507692 334.769231L512 378.092308 992.492308 334.769231C917.661538 133.907692 726.646154 0 512 0z" fill="#040000" p-id="2630"></path><path d="M31.507692 334.769231C9.846154 391.876923 0 452.923077 0 512c0 63.015385 11.815385 122.092308 31.507692 177.230769h960.984616c21.661538-57.107692 31.507692-118.153846 31.507692-177.230769 0-63.015385-11.815385-122.092308-31.507692-177.230769H31.507692z" fill="#CB1428" p-id="2631"></path></svg>