<?xml version="1.0" standalone="no"?><!DOCTYPE svg PUBLIC "-//W3C//DTD SVG 1.1//EN" "http://www.w3.org/Graphics/SVG/1.1/DTD/svg11.dtd"><svg t="1630898436012" class="icon" viewBox="0 0 1024 1024" version="1.1" xmlns="http://www.w3.org/2000/svg" p-id="6694" xmlns:xlink="http://www.w3.org/1999/xlink" width="200" height="200"><defs><style type="text/css"></style></defs><path d="M1023.483103 511.975292c0 27.168848-2.165633 54.337697-6.496899 81.30967a479.195486 479.195486 0 0 1-21.262577 85.444059c0 1.575006-0.984379 3.150011-1.771881 4.725017-3.543763 10.237537-7.481277 20.081323-11.812543 30.121984a519.948758 519.948758 0 0 1-75.994025 124.622327l-3.150012 3.740638a512.014667 512.014667 0 0 1-240.778997 159.469328 512.014667 512.014667 0 0 1-300.82609 0c-94.500342-29.334481-178.566272-85.640935-241.960251-161.831836a159.075576 159.075576 0 0 1-7.678153-9.253159c-5.315644-6.693774-10.631289-13.584424-15.553181-20.67195-12.600046-17.325063-24.018837-35.634504-34.059499-54.337696a493.567413 493.567413 0 0 1-32.878244-74.615896c-1.37813-3.937514-2.75626-7.875029-3.937514-11.812543L19.810717 650.575794c-5.315644-18.900068-9.450034-37.997013-12.40317-57.290832-9.64691-60.047093-8.465656-121.275439 3.150012-180.928781 4.331266-21.262577 10.040661-42.131403 17.128187-62.606477 6.300023-18.900068 13.584424-37.20951 22.050079-55.322075 2.953136-6.103147 5.709396-12.206294 9.056283-18.112566 6.693774-13.190673 14.175051-25.987594 22.05008-38.390764 3.543763-5.709396 7.284401-11.221916 11.02504-17.128187 12.600046-18.506317 26.381346-36.225131 41.147024-52.959567 61.818974-68.118997 140.766135-118.322304 228.572703-145.294276 19.687571-6.103147 39.768894-11.02504 60.047093-14.568803 59.850217-10.631289 121.078564-10.631289 180.731904 0 20.278198 3.543763 40.359521 8.465656 60.047093 14.568803 87.215941 26.775097 165.76935 76.584652 227.194573 143.916146 6.496899 7.087526 12.796921 14.371927 18.900068 21.656329a510.931851 510.931851 0 0 1 78.159658 132.300479c3.937514 9.64691 7.481277 19.096944 10.828165 28.94073 17.128187 52.762691 25.987594 107.494139 25.987594 162.619339z" fill="#1B2F61" p-id="6695"></path><path d="M1013.836193 412.356181c-4.331266-21.262577-10.040661-42.131403-17.128187-62.606477h-51.975188l41.343899-28.743854c-11.221916-27.956351-25.003216-54.731448-40.950148-80.128415-11.418791-18.112566-23.821961-35.634504-37.406386-52.172064-6.103147-7.284401-12.40317-14.765678-18.703192-21.656328l-226.603946 157.303694V22.542269c-19.687571-6.103147-39.768894-11.02504-60.047093-14.568803-59.850217-10.631289-121.078564-10.631289-180.731904 0-20.278198 3.543763-40.359521 8.465656-60.047093 14.568803v303.976101L132.817376 168.033421c-15.15943 16.734436-29.334481 34.45325-42.131402 53.156443-3.937514 5.51252-7.481277 11.02504-11.02504 17.128187-7.875029 12.206294-15.356306 25.200091-22.05008 38.390764-3.150011 5.906271-6.300023 12.009419-9.056283 18.112565-4.528141 9.253159-8.465656 18.506317-12.206294 27.956352l38.784515 26.775097H26.307616a515.755306 515.755306 0 0 0-19.687572 243.732133c2.953136 19.29382 7.087526 38.390764 12.40317 57.290832h53.156443l-22.837583 15.750057-20.868826 14.371927a523.689397 523.689397 0 0 0 32.878245 74.615896c10.237537 18.900068 21.656328 37.012634 34.059498 54.337696 4.921893 7.087526 10.237537 13.978176 15.553181 20.67195 2.362509 3.150011 4.921893 6.103147 7.678153 9.253159l240.975873-167.147481 1.575006-0.984378v329.963695c98.044105 30.121984 202.781985 30.121984 300.826089 0v-326.813684l8.465656 5.906272 232.313342 161.241209 3.150011-3.740639c17.325063-21.065701 32.878244-43.312657 46.659544-66.740867 11.02504-18.506317 20.868826-37.997013 29.334481-57.881459 4.331266-9.843786 8.26878-19.884447 11.812543-30.121984l-30.121984-21.065702-17.128187-12.009418h58.078335c5.315644-18.900068 9.450034-37.997013 12.40317-57.290833 9.64691-60.047093 8.465656-121.275439-3.150011-180.92878v0.393751z" fill="#FFFFFF" p-id="6696"></path><path d="M325.164948 650.575794L95.607867 809.65137c-12.600046-17.325063-24.018837-35.634504-34.059499-54.337696l151.200548-104.73788h112.416032z m657.171131 63.000228c-8.465656 19.884447-18.309441 39.178267-29.334481 57.88146l-174.038131-120.881688h112.612908l90.759704 63.000228z m-36.618883-473.092338c-11.418791-18.309441-23.821961-36.028256-37.406385-52.762691l-232.707093 161.831836h112.612908l157.50057-109.069145zM115.689189 316.477709l47.840799 33.271995h112.416032l-47.840798-33.271995-137.419248-94.500342c-3.937514 5.51252-7.481277 11.02504-11.02504 17.128187-7.875029 12.206294-15.356306 25.200091-22.05008 38.390764l58.078335 38.981391z" fill="#B71C22" p-id="6697"></path><path d="M1023.483103 511.975292c0 27.168848-2.165633 54.337697-6.496899 81.30967H602.169077V1015.977118c-59.850217 10.631289-121.078564 10.631289-180.731905 0V593.284962H6.620044c-9.64691-60.047093-8.465656-121.275439 3.150012-180.928781H421.437172V8.170342c59.850217-10.631289 121.078564-10.631289 180.731905 0v404.185839h411.667116c6.496899 32.878244 9.843786 66.15024 9.64691 99.619111z" fill="#B71C22" p-id="6698"></path></svg>